<?xml version="1.0" encoding="utf-8"?>
<!-- Generator: Adobe Illustrator 23.0.2, SVG Export Plug-In . SVG Version: 6.00 Build 0)  -->
<svg version="1.1" id="Layer_1" xmlns="http://www.w3.org/2000/svg" xmlns:xlink="http://www.w3.org/1999/xlink" x="0px" y="0px"
	 viewBox="0 0 1920 1080" style="enable-background:new 0 0 1920 1080;" xml:space="preserve">
<style type="text/css">
	.st0{fill:#EAEAEA;
	}
</style>
<g>
	<g>
		<circle class="st0" cx="111" cy="102.5" r="3"/>
	</g>
	<g>
		<circle class="st0" cx="182" cy="102.5" r="3"/>
	</g>
	<g>
		<circle class="st0" cx="253" cy="102.5" r="3"/>
	</g>
	<g>
		<circle class="st0" cx="324" cy="102.5" r="3"/>
	</g>
	<g>
		<circle class="st0" cx="395" cy="102.5" r="3"/>
	</g>
	<g>
		<circle class="st0" cx="466" cy="102.5" r="3"/>
	</g>
	<g>
		<circle class="st0" cx="537" cy="102.5" r="3"/>
	</g>
	<g>
		<circle class="st0" cx="608" cy="102.5" r="3"/>
	</g>
	<g>
		<circle class="st0" cx="679" cy="102.5" r="3"/>
	</g>
	<g>
		<circle class="st0" cx="750" cy="102.5" r="3"/>
	</g>
	<g>
		<circle class="st0" cx="821" cy="102.5" r="3"/>
	</g>
	<g>
		<circle class="st0" cx="892" cy="102.5" r="3"/>
	</g>
	<g>
		<circle class="st0" cx="963" cy="102.5" r="3"/>
	</g>
	<g>
		<circle class="st0" cx="1034" cy="102.5" r="3"/>
	</g>
	<g>
		<circle class="st0" cx="1105" cy="102.5" r="3"/>
	</g>
	<g>
		<circle class="st0" cx="1176" cy="102.5" r="3"/>
	</g>
	<g>
		<circle class="st0" cx="1247" cy="102.5" r="3"/>
	</g>
	<g>
		<circle class="st0" cx="1318" cy="102.5" r="3"/>
	</g>
	<g>
		<circle class="st0" cx="1389" cy="102.5" r="3"/>
	</g>
	<g>
		<circle class="st0" cx="1460" cy="102.5" r="3"/>
	</g>
	<g>
		<circle class="st0" cx="1531" cy="102.5" r="3"/>
	</g>
	<g>
		<circle class="st0" cx="1602" cy="102.5" r="3"/>
	</g>
	<g>
		<circle class="st0" cx="1673" cy="102.5" r="3"/>
	</g>
	<g>
		<circle class="st0" cx="1744" cy="102.5" r="3"/>
	</g>
	<g>
		<circle class="st0" cx="1815" cy="102.5" r="3"/>
	</g>
</g>
<g>
	<g>
		<circle class="st0" cx="111" cy="176.3" r="3"/>
	</g>
	<g>
		<circle class="st0" cx="182" cy="176.3" r="3"/>
	</g>
	<g>
		<circle class="st0" cx="253" cy="176.3" r="3"/>
	</g>
	<g>
		<circle class="st0" cx="324" cy="176.3" r="3"/>
	</g>
	<g>
		<circle class="st0" cx="395" cy="176.3" r="3"/>
	</g>
	<g>
		<circle class="st0" cx="466" cy="176.3" r="3"/>
	</g>
	<g>
		<circle class="st0" cx="537" cy="176.3" r="3"/>
	</g>
	<g>
		<circle class="st0" cx="608" cy="176.3" r="3"/>
	</g>
	<g>
		<circle class="st0" cx="679" cy="176.3" r="3"/>
	</g>
	<g>
		<circle class="st0" cx="750" cy="176.3" r="3"/>
	</g>
	<g>
		<circle class="st0" cx="821" cy="176.3" r="3"/>
	</g>
	<g>
		<circle class="st0" cx="892" cy="176.3" r="3"/>
	</g>
	<g>
		<circle class="st0" cx="963" cy="176.3" r="3"/>
	</g>
	<g>
		<circle class="st0" cx="1034" cy="176.3" r="3"/>
	</g>
	<g>
		<circle class="st0" cx="1105" cy="176.3" r="3"/>
	</g>
	<g>
		<circle class="st0" cx="1176" cy="176.3" r="3"/>
	</g>
	<g>
		<circle class="st0" cx="1247" cy="176.3" r="3"/>
	</g>
	<g>
		<circle class="st0" cx="1318" cy="176.3" r="3"/>
	</g>
	<g>
		<circle class="st0" cx="1389" cy="176.3" r="3"/>
	</g>
	<g>
		<circle class="st0" cx="1460" cy="176.3" r="3"/>
	</g>
	<g>
		<circle class="st0" cx="1531" cy="176.3" r="3"/>
	</g>
	<g>
		<circle class="st0" cx="1602" cy="176.3" r="3"/>
	</g>
	<g>
		<circle class="st0" cx="1673" cy="176.3" r="3"/>
	</g>
	<g>
		<circle class="st0" cx="1744" cy="176.3" r="3"/>
	</g>
	<g>
		<circle class="st0" cx="1815" cy="176.3" r="3"/>
	</g>
</g>
<g>
	<g>
		<circle class="st0" cx="111" cy="250" r="3"/>
	</g>
	<g>
		<circle class="st0" cx="182" cy="250" r="3"/>
	</g>
	<g>
		<circle class="st0" cx="253" cy="250" r="3"/>
	</g>
	<g>
		<circle class="st0" cx="324" cy="250" r="3"/>
	</g>
	<g>
		<circle class="st0" cx="395" cy="250" r="3"/>
	</g>
	<g>
		<circle class="st0" cx="466" cy="250" r="3"/>
	</g>
	<g>
		<circle class="st0" cx="537" cy="250" r="3"/>
	</g>
	<g>
		<circle class="st0" cx="608" cy="250" r="3"/>
	</g>
	<g>
		<circle class="st0" cx="679" cy="250" r="3"/>
	</g>
	<g>
		<circle class="st0" cx="750" cy="250" r="3"/>
	</g>
	<g>
		<circle class="st0" cx="821" cy="250" r="3"/>
	</g>
	<g>
		<circle class="st0" cx="892" cy="250" r="3"/>
	</g>
	<g>
		<circle class="st0" cx="963" cy="250" r="3"/>
	</g>
	<g>
		<circle class="st0" cx="1034" cy="250" r="3"/>
	</g>
	<g>
		<circle class="st0" cx="1105" cy="250" r="3"/>
	</g>
	<g>
		<circle class="st0" cx="1176" cy="250" r="3"/>
	</g>
	<g>
		<circle class="st0" cx="1247" cy="250" r="3"/>
	</g>
	<g>
		<circle class="st0" cx="1318" cy="250" r="3"/>
	</g>
	<g>
		<circle class="st0" cx="1389" cy="250" r="3"/>
	</g>
	<g>
		<circle class="st0" cx="1460" cy="250" r="3"/>
	</g>
	<g>
		<circle class="st0" cx="1531" cy="250" r="3"/>
	</g>
	<g>
		<circle class="st0" cx="1602" cy="250" r="3"/>
	</g>
	<g>
		<circle class="st0" cx="1673" cy="250" r="3"/>
	</g>
	<g>
		<circle class="st0" cx="1744" cy="250" r="3"/>
	</g>
	<g>
		<circle class="st0" cx="1815" cy="250" r="3"/>
	</g>
</g>
<g>
	<g>
		<circle class="st0" cx="111" cy="323.8" r="3"/>
	</g>
	<g>
		<circle class="st0" cx="182" cy="323.8" r="3"/>
	</g>
	<g>
		<circle class="st0" cx="253" cy="323.8" r="3"/>
	</g>
	<g>
		<circle class="st0" cx="324" cy="323.8" r="3"/>
	</g>
	<g>
		<circle class="st0" cx="395" cy="323.8" r="3"/>
	</g>
	<g>
		<circle class="st0" cx="466" cy="323.8" r="3"/>
	</g>
	<g>
		<circle class="st0" cx="537" cy="323.8" r="3"/>
	</g>
	<g>
		<circle class="st0" cx="608" cy="323.8" r="3"/>
	</g>
	<g>
		<circle class="st0" cx="679" cy="323.8" r="3"/>
	</g>
	<g>
		<circle class="st0" cx="750" cy="323.8" r="3"/>
	</g>
	<g>
		<circle class="st0" cx="821" cy="323.8" r="3"/>
	</g>
	<g>
		<circle class="st0" cx="892" cy="323.8" r="3"/>
	</g>
	<g>
		<circle class="st0" cx="963" cy="323.8" r="3"/>
	</g>
	<g>
		<circle class="st0" cx="1034" cy="323.8" r="3"/>
	</g>
	<g>
		<circle class="st0" cx="1105" cy="323.8" r="3"/>
	</g>
	<g>
		<circle class="st0" cx="1176" cy="323.8" r="3"/>
	</g>
	<g>
		<circle class="st0" cx="1247" cy="323.8" r="3"/>
	</g>
	<g>
		<circle class="st0" cx="1318" cy="323.8" r="3"/>
	</g>
	<g>
		<circle class="st0" cx="1389" cy="323.8" r="3"/>
	</g>
	<g>
		<circle class="st0" cx="1460" cy="323.8" r="3"/>
	</g>
	<g>
		<circle class="st0" cx="1531" cy="323.8" r="3"/>
	</g>
	<g>
		<circle class="st0" cx="1602" cy="323.8" r="3"/>
	</g>
	<g>
		<circle class="st0" cx="1673" cy="323.8" r="3"/>
	</g>
	<g>
		<circle class="st0" cx="1744" cy="323.8" r="3"/>
	</g>
	<g>
		<circle class="st0" cx="1815" cy="323.8" r="3"/>
	</g>
</g>
<g>
	<g>
		<circle class="st0" cx="111" cy="397.5" r="3"/>
	</g>
	<g>
		<circle class="st0" cx="182" cy="397.5" r="3"/>
	</g>
	<g>
		<circle class="st0" cx="253" cy="397.5" r="3"/>
	</g>
	<g>
		<circle class="st0" cx="324" cy="397.5" r="3"/>
	</g>
	<g>
		<circle class="st0" cx="395" cy="397.5" r="3"/>
	</g>
	<g>
		<circle class="st0" cx="466" cy="397.5" r="3"/>
	</g>
	<g>
		<circle class="st0" cx="537" cy="397.5" r="3"/>
	</g>
	<g>
		<circle class="st0" cx="608" cy="397.5" r="3"/>
	</g>
	<g>
		<circle class="st0" cx="679" cy="397.5" r="3"/>
	</g>
	<g>
		<circle class="st0" cx="750" cy="397.5" r="3"/>
	</g>
	<g>
		<circle class="st0" cx="821" cy="397.5" r="3"/>
	</g>
	<g>
		<circle class="st0" cx="892" cy="397.5" r="3"/>
	</g>
	<g>
		<circle class="st0" cx="963" cy="397.5" r="3"/>
	</g>
	<g>
		<circle class="st0" cx="1034" cy="397.5" r="3"/>
	</g>
	<g>
		<circle class="st0" cx="1105" cy="397.5" r="3"/>
	</g>
	<g>
		<circle class="st0" cx="1176" cy="397.5" r="3"/>
	</g>
	<g>
		<circle class="st0" cx="1247" cy="397.5" r="3"/>
	</g>
	<g>
		<circle class="st0" cx="1318" cy="397.5" r="3"/>
	</g>
	<g>
		<circle class="st0" cx="1389" cy="397.5" r="3"/>
	</g>
	<g>
		<circle class="st0" cx="1460" cy="397.5" r="3"/>
	</g>
	<g>
		<circle class="st0" cx="1531" cy="397.5" r="3"/>
	</g>
	<g>
		<circle class="st0" cx="1602" cy="397.5" r="3"/>
	</g>
	<g>
		<circle class="st0" cx="1673" cy="397.5" r="3"/>
	</g>
	<g>
		<circle class="st0" cx="1744" cy="397.5" r="3"/>
	</g>
	<g>
		<circle class="st0" cx="1815" cy="397.5" r="3"/>
	</g>
</g>
<g>
	<g>
		<circle class="st0" cx="111" cy="471.3" r="3"/>
	</g>
	<g>
		<circle class="st0" cx="182" cy="471.3" r="3"/>
	</g>
	<g>
		<circle class="st0" cx="253" cy="471.3" r="3"/>
	</g>
	<g>
		<circle class="st0" cx="324" cy="471.3" r="3"/>
	</g>
	<g>
		<circle class="st0" cx="395" cy="471.3" r="3"/>
	</g>
	<g>
		<circle class="st0" cx="466" cy="471.3" r="3"/>
	</g>
	<g>
		<circle class="st0" cx="537" cy="471.3" r="3"/>
	</g>
	<g>
		<circle class="st0" cx="608" cy="471.3" r="3"/>
	</g>
	<g>
		<circle class="st0" cx="679" cy="471.3" r="3"/>
	</g>
	<g>
		<circle class="st0" cx="750" cy="471.3" r="3"/>
	</g>
	<g>
		<circle class="st0" cx="821" cy="471.3" r="3"/>
	</g>
	<g>
		<circle class="st0" cx="892" cy="471.3" r="3"/>
	</g>
	<g>
		<circle class="st0" cx="963" cy="471.3" r="3"/>
	</g>
	<g>
		<circle class="st0" cx="1034" cy="471.3" r="3"/>
	</g>
	<g>
		<circle class="st0" cx="1105" cy="471.3" r="3"/>
	</g>
	<g>
		<circle class="st0" cx="1176" cy="471.3" r="3"/>
	</g>
	<g>
		<circle class="st0" cx="1247" cy="471.3" r="3"/>
	</g>
	<g>
		<circle class="st0" cx="1318" cy="471.3" r="3"/>
	</g>
	<g>
		<circle class="st0" cx="1389" cy="471.3" r="3"/>
	</g>
	<g>
		<circle class="st0" cx="1460" cy="471.3" r="3"/>
	</g>
	<g>
		<circle class="st0" cx="1531" cy="471.3" r="3"/>
	</g>
	<g>
		<circle class="st0" cx="1602" cy="471.3" r="3"/>
	</g>
	<g>
		<circle class="st0" cx="1673" cy="471.3" r="3"/>
	</g>
	<g>
		<circle class="st0" cx="1744" cy="471.3" r="3"/>
	</g>
	<g>
		<circle class="st0" cx="1815" cy="471.3" r="3"/>
	</g>
</g>
<g>
	<g>
		<circle class="st0" cx="111" cy="545" r="3"/>
	</g>
	<g>
		<circle class="st0" cx="182" cy="545" r="3"/>
	</g>
	<g>
		<circle class="st0" cx="253" cy="545" r="3"/>
	</g>
	<g>
		<circle class="st0" cx="324" cy="545" r="3"/>
	</g>
	<g>
		<circle class="st0" cx="395" cy="545" r="3"/>
	</g>
	<g>
		<circle class="st0" cx="466" cy="545" r="3"/>
	</g>
	<g>
		<circle class="st0" cx="537" cy="545" r="3"/>
	</g>
	<g>
		<circle class="st0" cx="608" cy="545" r="3"/>
	</g>
	<g>
		<circle class="st0" cx="679" cy="545" r="3"/>
	</g>
	<g>
		<circle class="st0" cx="750" cy="545" r="3"/>
	</g>
	<g>
		<circle class="st0" cx="821" cy="545" r="3"/>
	</g>
	<g>
		<circle class="st0" cx="892" cy="545" r="3"/>
	</g>
	<g>
		<circle class="st0" cx="963" cy="545" r="3"/>
	</g>
	<g>
		<circle class="st0" cx="1034" cy="545" r="3"/>
	</g>
	<g>
		<circle class="st0" cx="1105" cy="545" r="3"/>
	</g>
	<g>
		<circle class="st0" cx="1176" cy="545" r="3"/>
	</g>
	<g>
		<circle class="st0" cx="1247" cy="545" r="3"/>
	</g>
	<g>
		<circle class="st0" cx="1318" cy="545" r="3"/>
	</g>
	<g>
		<circle class="st0" cx="1389" cy="545" r="3"/>
	</g>
	<g>
		<circle class="st0" cx="1460" cy="545" r="3"/>
	</g>
	<g>
		<circle class="st0" cx="1531" cy="545" r="3"/>
	</g>
	<g>
		<circle class="st0" cx="1602" cy="545" r="3"/>
	</g>
	<g>
		<circle class="st0" cx="1673" cy="545" r="3"/>
	</g>
	<g>
		<circle class="st0" cx="1744" cy="545" r="3"/>
	</g>
	<g>
		<circle class="st0" cx="1815" cy="545" r="3"/>
	</g>
</g>
<g>
	<g>
		<circle class="st0" cx="111" cy="618.8" r="3"/>
	</g>
	<g>
		<circle class="st0" cx="182" cy="618.8" r="3"/>
	</g>
	<g>
		<circle class="st0" cx="253" cy="618.8" r="3"/>
	</g>
	<g>
		<circle class="st0" cx="324" cy="618.8" r="3"/>
	</g>
	<g>
		<circle class="st0" cx="395" cy="618.8" r="3"/>
	</g>
	<g>
		<circle class="st0" cx="466" cy="618.8" r="3"/>
	</g>
	<g>
		<circle class="st0" cx="537" cy="618.8" r="3"/>
	</g>
	<g>
		<circle class="st0" cx="608" cy="618.8" r="3"/>
	</g>
	<g>
		<circle class="st0" cx="679" cy="618.8" r="3"/>
	</g>
	<g>
		<circle class="st0" cx="750" cy="618.8" r="3"/>
	</g>
	<g>
		<circle class="st0" cx="821" cy="618.8" r="3"/>
	</g>
	<g>
		<circle class="st0" cx="892" cy="618.8" r="3"/>
	</g>
	<g>
		<circle class="st0" cx="963" cy="618.8" r="3"/>
	</g>
	<g>
		<circle class="st0" cx="1034" cy="618.8" r="3"/>
	</g>
	<g>
		<circle class="st0" cx="1105" cy="618.8" r="3"/>
	</g>
	<g>
		<circle class="st0" cx="1176" cy="618.8" r="3"/>
	</g>
	<g>
		<circle class="st0" cx="1247" cy="618.8" r="3"/>
	</g>
	<g>
		<circle class="st0" cx="1318" cy="618.8" r="3"/>
	</g>
	<g>
		<circle class="st0" cx="1389" cy="618.8" r="3"/>
	</g>
	<g>
		<circle class="st0" cx="1460" cy="618.8" r="3"/>
	</g>
	<g>
		<circle class="st0" cx="1531" cy="618.8" r="3"/>
	</g>
	<g>
		<circle class="st0" cx="1602" cy="618.8" r="3"/>
	</g>
	<g>
		<circle class="st0" cx="1673" cy="618.8" r="3"/>
	</g>
	<g>
		<circle class="st0" cx="1744" cy="618.8" r="3"/>
	</g>
	<g>
		<circle class="st0" cx="1815" cy="618.8" r="3"/>
	</g>
</g>
<g>
	<g>
		<circle class="st0" cx="111" cy="692.5" r="3"/>
	</g>
	<g>
		<circle class="st0" cx="182" cy="692.5" r="3"/>
	</g>
	<g>
		<circle class="st0" cx="253" cy="692.5" r="3"/>
	</g>
	<g>
		<circle class="st0" cx="324" cy="692.5" r="3"/>
	</g>
	<g>
		<circle class="st0" cx="395" cy="692.5" r="3"/>
	</g>
	<g>
		<circle class="st0" cx="466" cy="692.5" r="3"/>
	</g>
	<g>
		<circle class="st0" cx="537" cy="692.5" r="3"/>
	</g>
	<g>
		<circle class="st0" cx="608" cy="692.5" r="3"/>
	</g>
	<g>
		<circle class="st0" cx="679" cy="692.5" r="3"/>
	</g>
	<g>
		<circle class="st0" cx="750" cy="692.5" r="3"/>
	</g>
	<g>
		<circle class="st0" cx="821" cy="692.5" r="3"/>
	</g>
	<g>
		<circle class="st0" cx="892" cy="692.5" r="3"/>
	</g>
	<g>
		<circle class="st0" cx="963" cy="692.5" r="3"/>
	</g>
	<g>
		<circle class="st0" cx="1034" cy="692.5" r="3"/>
	</g>
	<g>
		<circle class="st0" cx="1105" cy="692.5" r="3"/>
	</g>
	<g>
		<circle class="st0" cx="1176" cy="692.5" r="3"/>
	</g>
	<g>
		<circle class="st0" cx="1247" cy="692.5" r="3"/>
	</g>
	<g>
		<circle class="st0" cx="1318" cy="692.5" r="3"/>
	</g>
	<g>
		<circle class="st0" cx="1389" cy="692.5" r="3"/>
	</g>
	<g>
		<circle class="st0" cx="1460" cy="692.5" r="3"/>
	</g>
	<g>
		<circle class="st0" cx="1531" cy="692.5" r="3"/>
	</g>
	<g>
		<circle class="st0" cx="1602" cy="692.5" r="3"/>
	</g>
	<g>
		<circle class="st0" cx="1673" cy="692.5" r="3"/>
	</g>
	<g>
		<circle class="st0" cx="1744" cy="692.5" r="3"/>
	</g>
	<g>
		<circle class="st0" cx="1815" cy="692.5" r="3"/>
	</g>
</g>
<g>
	<g>
		<circle class="st0" cx="111" cy="766.3" r="3"/>
	</g>
	<g>
		<circle class="st0" cx="182" cy="766.3" r="3"/>
	</g>
	<g>
		<circle class="st0" cx="253" cy="766.3" r="3"/>
	</g>
	<g>
		<circle class="st0" cx="324" cy="766.3" r="3"/>
	</g>
	<g>
		<circle class="st0" cx="395" cy="766.3" r="3"/>
	</g>
	<g>
		<circle class="st0" cx="466" cy="766.3" r="3"/>
	</g>
	<g>
		<circle class="st0" cx="537" cy="766.3" r="3"/>
	</g>
	<g>
		<circle class="st0" cx="608" cy="766.3" r="3"/>
	</g>
	<g>
		<circle class="st0" cx="679" cy="766.3" r="3"/>
	</g>
	<g>
		<circle class="st0" cx="750" cy="766.3" r="3"/>
	</g>
	<g>
		<circle class="st0" cx="821" cy="766.3" r="3"/>
	</g>
	<g>
		<circle class="st0" cx="892" cy="766.3" r="3"/>
	</g>
	<g>
		<circle class="st0" cx="963" cy="766.3" r="3"/>
	</g>
	<g>
		<circle class="st0" cx="1034" cy="766.3" r="3"/>
	</g>
	<g>
		<circle class="st0" cx="1105" cy="766.3" r="3"/>
	</g>
	<g>
		<circle class="st0" cx="1176" cy="766.3" r="3"/>
	</g>
	<g>
		<circle class="st0" cx="1247" cy="766.3" r="3"/>
	</g>
	<g>
		<circle class="st0" cx="1318" cy="766.3" r="3"/>
	</g>
	<g>
		<circle class="st0" cx="1389" cy="766.3" r="3"/>
	</g>
	<g>
		<circle class="st0" cx="1460" cy="766.3" r="3"/>
	</g>
	<g>
		<circle class="st0" cx="1531" cy="766.3" r="3"/>
	</g>
	<g>
		<circle class="st0" cx="1602" cy="766.3" r="3"/>
	</g>
	<g>
		<circle class="st0" cx="1673" cy="766.3" r="3"/>
	</g>
	<g>
		<circle class="st0" cx="1744" cy="766.3" r="3"/>
	</g>
	<g>
		<circle class="st0" cx="1815" cy="766.3" r="3"/>
	</g>
</g>
<g>
	<g>
		<circle class="st0" cx="111" cy="840" r="3"/>
	</g>
	<g>
		<circle class="st0" cx="182" cy="840" r="3"/>
	</g>
	<g>
		<circle class="st0" cx="253" cy="840" r="3"/>
	</g>
	<g>
		<circle class="st0" cx="324" cy="840" r="3"/>
	</g>
	<g>
		<circle class="st0" cx="395" cy="840" r="3"/>
	</g>
	<g>
		<circle class="st0" cx="466" cy="840" r="3"/>
	</g>
	<g>
		<circle class="st0" cx="537" cy="840" r="3"/>
	</g>
	<g>
		<circle class="st0" cx="608" cy="840" r="3"/>
	</g>
	<g>
		<circle class="st0" cx="679" cy="840" r="3"/>
	</g>
	<g>
		<circle class="st0" cx="750" cy="840" r="3"/>
	</g>
	<g>
		<circle class="st0" cx="821" cy="840" r="3"/>
	</g>
	<g>
		<circle class="st0" cx="892" cy="840" r="3"/>
	</g>
	<g>
		<circle class="st0" cx="963" cy="840" r="3"/>
	</g>
	<g>
		<circle class="st0" cx="1034" cy="840" r="3"/>
	</g>
	<g>
		<circle class="st0" cx="1105" cy="840" r="3"/>
	</g>
	<g>
		<circle class="st0" cx="1176" cy="840" r="3"/>
	</g>
	<g>
		<circle class="st0" cx="1247" cy="840" r="3"/>
	</g>
	<g>
		<circle class="st0" cx="1318" cy="840" r="3"/>
	</g>
	<g>
		<circle class="st0" cx="1389" cy="840" r="3"/>
	</g>
	<g>
		<circle class="st0" cx="1460" cy="840" r="3"/>
	</g>
	<g>
		<circle class="st0" cx="1531" cy="840" r="3"/>
	</g>
	<g>
		<circle class="st0" cx="1602" cy="840" r="3"/>
	</g>
	<g>
		<circle class="st0" cx="1673" cy="840" r="3"/>
	</g>
	<g>
		<circle class="st0" cx="1744" cy="840" r="3"/>
	</g>
	<g>
		<circle class="st0" cx="1815" cy="840" r="3"/>
	</g>
</g>
<g>
	<g>
		<circle class="st0" cx="111" cy="913.8" r="3"/>
	</g>
	<g>
		<circle class="st0" cx="182" cy="913.8" r="3"/>
	</g>
	<g>
		<circle class="st0" cx="253" cy="913.8" r="3"/>
	</g>
	<g>
		<circle class="st0" cx="324" cy="913.8" r="3"/>
	</g>
	<g>
		<circle class="st0" cx="395" cy="913.8" r="3"/>
	</g>
	<g>
		<circle class="st0" cx="466" cy="913.8" r="3"/>
	</g>
	<g>
		<circle class="st0" cx="537" cy="913.8" r="3"/>
	</g>
	<g>
		<circle class="st0" cx="608" cy="913.8" r="3"/>
	</g>
	<g>
		<circle class="st0" cx="679" cy="913.8" r="3"/>
	</g>
	<g>
		<circle class="st0" cx="750" cy="913.8" r="3"/>
	</g>
	<g>
		<circle class="st0" cx="821" cy="913.8" r="3"/>
	</g>
	<g>
		<circle class="st0" cx="892" cy="913.8" r="3"/>
	</g>
	<g>
		<circle class="st0" cx="963" cy="913.8" r="3"/>
	</g>
	<g>
		<circle class="st0" cx="1034" cy="913.8" r="3"/>
	</g>
	<g>
		<circle class="st0" cx="1105" cy="913.8" r="3"/>
	</g>
	<g>
		<circle class="st0" cx="1176" cy="913.8" r="3"/>
	</g>
	<g>
		<circle class="st0" cx="1247" cy="913.8" r="3"/>
	</g>
	<g>
		<circle class="st0" cx="1318" cy="913.8" r="3"/>
	</g>
	<g>
		<circle class="st0" cx="1389" cy="913.8" r="3"/>
	</g>
	<g>
		<circle class="st0" cx="1460" cy="913.8" r="3"/>
	</g>
	<g>
		<circle class="st0" cx="1531" cy="913.8" r="3"/>
	</g>
	<g>
		<circle class="st0" cx="1602" cy="913.8" r="3"/>
	</g>
	<g>
		<circle class="st0" cx="1673" cy="913.8" r="3"/>
	</g>
	<g>
		<circle class="st0" cx="1744" cy="913.8" r="3"/>
	</g>
	<g>
		<circle class="st0" cx="1815" cy="913.8" r="3"/>
	</g>
</g>
<g>
	<g>
		<circle class="st0" cx="111" cy="987.5" r="3"/>
	</g>
	<g>
		<circle class="st0" cx="182" cy="987.5" r="3"/>
	</g>
	<g>
		<circle class="st0" cx="253" cy="987.5" r="3"/>
	</g>
	<g>
		<circle class="st0" cx="324" cy="987.5" r="3"/>
	</g>
	<g>
		<circle class="st0" cx="395" cy="987.5" r="3"/>
	</g>
	<g>
		<circle class="st0" cx="466" cy="987.5" r="3"/>
	</g>
	<g>
		<circle class="st0" cx="537" cy="987.5" r="3"/>
	</g>
	<g>
		<circle class="st0" cx="608" cy="987.5" r="3"/>
	</g>
	<g>
		<circle class="st0" cx="679" cy="987.5" r="3"/>
	</g>
	<g>
		<circle class="st0" cx="750" cy="987.5" r="3"/>
	</g>
	<g>
		<circle class="st0" cx="821" cy="987.5" r="3"/>
	</g>
	<g>
		<circle class="st0" cx="892" cy="987.5" r="3"/>
	</g>
	<g>
		<circle class="st0" cx="963" cy="987.5" r="3"/>
	</g>
	<g>
		<circle class="st0" cx="1034" cy="987.5" r="3"/>
	</g>
	<g>
		<circle class="st0" cx="1105" cy="987.5" r="3"/>
	</g>
	<g>
		<circle class="st0" cx="1176" cy="987.5" r="3"/>
	</g>
	<g>
		<circle class="st0" cx="1247" cy="987.5" r="3"/>
	</g>
	<g>
		<circle class="st0" cx="1318" cy="987.5" r="3"/>
	</g>
	<g>
		<circle class="st0" cx="1389" cy="987.5" r="3"/>
	</g>
	<g>
		<circle class="st0" cx="1460" cy="987.5" r="3"/>
	</g>
	<g>
		<circle class="st0" cx="1531" cy="987.5" r="3"/>
	</g>
	<g>
		<circle class="st0" cx="1602" cy="987.5" r="3"/>
	</g>
	<g>
		<circle class="st0" cx="1673" cy="987.5" r="3"/>
	</g>
	<g>
		<circle class="st0" cx="1744" cy="987.5" r="3"/>
	</g>
	<g>
		<circle class="st0" cx="1815" cy="987.5" r="3"/>
	</g>
</g>
</svg>
