<svg id="Layer_1" data-name="Layer 1" xmlns="http://www.w3.org/2000/svg" viewBox="0 0 28.06 28.09"><title>logos</title><rect x="2.76" y="13.56" width="22.46" height="1.03" transform="translate(-5.86 14.01) rotate(-45)" style="fill:#fff"/><path d="M15.46,26.31a2.59,2.59,0,0,1-4-3.28l6.38-6.38-.72-.72-6.38,6.38a3.56,3.56,0,0,0,.75,5.13,3.72,3.72,0,0,0,4.67-.39l1.12-1.13h0l-.72-.72Z" style="fill:#fff"/><path d="M5.05,16.58a2.58,2.58,0,0,1-3.79-1,2.55,2.55,0,0,1,.51-3L2.9,11.48h0l-.73-.72L1,11.88a3.73,3.73,0,0,0-.4,4.67,3.55,3.55,0,0,0,5.13.75l6.38-6.38-.72-.72Z" style="fill:#fff"/><rect x="17.19" y="15.68" width="0.79" height="1.03" transform="translate(-6.3 17.18) rotate(-45)" style="fill:#d9e1e4"/><rect x="14.29" y="12.84" width="0.83" height="1.03" transform="translate(-5.14 14.31) rotate(-45)" style="fill:#d9e1e4"/><rect x="11.71" y="9.87" width="0.52" height="1.03" transform="translate(-3.84 11.51) rotate(-45)" style="fill:#d9e1e4"/><rect x="11.68" y="9.57" width="0.01" height="0.31" transform="translate(-3.46 11.11) rotate(-45)" style="fill:#fff"/><path d="M18.24,16.28l.21.21L19,17l-3.25,3.25a2.6,2.6,0,0,0-.33,3.33,2.57,2.57,0,0,0,3.91.35L27,16.19a3.48,3.48,0,0,0,.24-4.69c-1.51-1.77-4-1.74-5.73,0l-3.31,3.31L13.37,10l-.12-.11,3.32-3.32a3.76,3.76,0,0,0,0-5.72A3.47,3.47,0,0,0,11.89,1L4.19,8.72a2.62,2.62,0,0,0-.33,3.34,2.57,2.57,0,0,0,3.91.35l3.29-3.29.51.5.21.22h0l.73.72h0l4.86,4.87.12.12h0l.75.73Zm4-4a2.76,2.76,0,0,1,4.27,0,2.53,2.53,0,0,1-.24,3.24l-7.7,7.7A1.54,1.54,0,1,1,16.39,21l4-4L19,15.55ZM12.52,9.12,11.07,7.66l-4,4a1.56,1.56,0,0,1-1.93.24A1.54,1.54,0,0,1,4.87,9.5l7.74-7.74a2.53,2.53,0,0,1,3.23-.24,2.76,2.76,0,0,1,0,4.27Z" style="fill:#fff"/></svg>