<svg id="Layer_1" data-name="Layer 1" xmlns="http://www.w3.org/2000/svg" viewBox="0 0 88.78 23.03"><title>logos</title><path d="M5.64,4.37A5.15,5.15,0,0,1,8.2,3.7a4.43,4.43,0,0,1,2.19.56,8.35,8.35,0,0,1,1.88,1.43l.13.15,1.93-2-.09-.13a5.88,5.88,0,0,0-1.41-1.41,8.18,8.18,0,0,0-2.08-1.08A7.62,7.62,0,0,0,8.2.79a7.89,7.89,0,0,0-3.13.64A8.27,8.27,0,0,0,2.44,3.21,8.17,8.17,0,0,0,.65,5.91,8.75,8.75,0,0,0,0,9.3a9.32,9.32,0,0,0,1.06,4.52,7.85,7.85,0,0,0,2.87,3A8,8,0,0,0,8,17.89a9,9,0,0,0,2.47-.33,8.72,8.72,0,0,0,2-.86,5.82,5.82,0,0,0,1.41-1.11l.1-.11L12.55,13.1l-.17.17a6.11,6.11,0,0,1-1.63,1.17A5,5,0,0,1,8.41,15a6,6,0,0,1-2.71-.63,4.77,4.77,0,0,1-2-1.87A6.05,6.05,0,0,1,3,9.3a5.83,5.83,0,0,1,.74-3A5.3,5.3,0,0,1,5.64,4.37Z" style="fill:#fff"/><path d="M25.37,5.61a6.39,6.39,0,0,0-3.26-.85,6.51,6.51,0,0,0-3.27.85,6.3,6.3,0,0,0-2.32,2.32,6.65,6.65,0,0,0-.85,3.4,6.68,6.68,0,0,0,.85,3.4,6.3,6.3,0,0,0,2.32,2.32,6.5,6.5,0,0,0,3.27.84,6.38,6.38,0,0,0,3.26-.84,6.3,6.3,0,0,0,2.32-2.32,6.81,6.81,0,0,0,.85-3.4,6.68,6.68,0,0,0-.86-3.4A6.2,6.2,0,0,0,25.37,5.61Zm.34,5.72a4.24,4.24,0,0,1-.46,2.07A3.61,3.61,0,0,1,24,14.81a3.4,3.4,0,0,1-1.84.51,3.48,3.48,0,0,1-1.85-.51A3.54,3.54,0,0,1,19,13.4a4.13,4.13,0,0,1-.46-2.07h0A4.18,4.18,0,0,1,19,9.23a3.49,3.49,0,0,1,1.3-1.39,3.56,3.56,0,0,1,1.85-.5,3.48,3.48,0,0,1,1.84.5,3.56,3.56,0,0,1,1.3,1.39,4.29,4.29,0,0,1,.46,2.09Z" style="fill:#fff"/><rect x="30.77" width="2.79" height="17.66" style="fill:#fff"/><path d="M45,5.53a5.49,5.49,0,0,0-2.9-.79,6.5,6.5,0,0,0-3.2.81,6.09,6.09,0,0,0-2.36,2.31,7,7,0,0,0-.89,3.61,6.45,6.45,0,0,0,.84,3.3,6,6,0,0,0,2.35,2.29,7.44,7.44,0,0,0,6.27.26,7.27,7.27,0,0,0,2.06-1.27h.31l-1.52-2.23-.16.14a9.55,9.55,0,0,1-1.28.91,3.92,3.92,0,0,1-2,.45,4.21,4.21,0,0,1-2.81-.93,3.68,3.68,0,0,1-1.26-2.29H47.8l0-1.22a6.33,6.33,0,0,0-.77-3.19A5.73,5.73,0,0,0,45,5.53ZM39.77,8a4.35,4.35,0,0,1,2.31-.61,3,3,0,0,1,1.36.32,2.94,2.94,0,0,1,1.06.89A2.41,2.41,0,0,1,45,9.81H38.56A3,3,0,0,1,39.77,8Z" style="fill:#fff"/><path d="M59.33,6.41a6.85,6.85,0,0,0-1.36-1,5.12,5.12,0,0,0-2.58-.65A6.06,6.06,0,0,0,50,7.93a7,7,0,0,0-.82,3.4A6.88,6.88,0,0,0,50,14.71a6.2,6.2,0,0,0,2.26,2.34,6.12,6.12,0,0,0,3.18.84,4.87,4.87,0,0,0,1.77-.33,5.33,5.33,0,0,0,1.48-.84,6,6,0,0,0,.62-.61V17a3.44,3.44,0,0,1-.94,2.63,4,4,0,0,1-2.77.87,6.78,6.78,0,0,1-2-.32,5.55,5.55,0,0,1-1.69-.83l-.19-.15-1.05,2.22.11.1A6.72,6.72,0,0,0,53,22.61a8.74,8.74,0,0,0,2.66.42,8,8,0,0,0,3.19-.63,5.34,5.34,0,0,0,2.4-2,6.59,6.59,0,0,0,.9-3.64V5H59.33ZM59,9.27a4.38,4.38,0,0,1,.47,2.06A4.42,4.42,0,0,1,59,13.38a3.49,3.49,0,0,1-1.29,1.4,3.66,3.66,0,0,1-1.95.51,3.46,3.46,0,0,1-1.89-.52,3.63,3.63,0,0,1-1.31-1.41,4.2,4.2,0,0,1-.48-2,4.31,4.31,0,0,1,.48-2.05,3.66,3.66,0,0,1,1.31-1.42,3.46,3.46,0,0,1,1.89-.52,3.54,3.54,0,0,1,1.94.52A3.6,3.6,0,0,1,59,9.27Z" style="fill:#fff"/><path d="M74.08,6.32a5.69,5.69,0,0,0-1.26-1,4.66,4.66,0,0,0-2.35-.59,6.07,6.07,0,0,0-3.18.84,5.9,5.9,0,0,0-2.2,2.31,7.16,7.16,0,0,0-.79,3.39,7.35,7.35,0,0,0,.77,3.41,6,6,0,0,0,2.08,2.34,5.34,5.34,0,0,0,2.92.84,5,5,0,0,0,2.65-.7,6.49,6.49,0,0,0,1.36-1.09v1.56h2.81V5H74.08Zm-.35,3a4.4,4.4,0,0,1,.45,2,4.59,4.59,0,0,1-.45,2.06,3.64,3.64,0,0,1-1.24,1.42,3.37,3.37,0,0,1-1.86.51,3.29,3.29,0,0,1-1.81-.51,3.64,3.64,0,0,1-1.24-1.42,4.56,4.56,0,0,1-.45-2.06,4.43,4.43,0,0,1,.45-2,3.44,3.44,0,0,1,1.24-1.4,3.29,3.29,0,0,1,1.81-.51,3.37,3.37,0,0,1,1.86.52A3.61,3.61,0,0,1,73.73,9.29Z" style="fill:#fff"/><path d="M88.14,11.87a4,4,0,0,0-1.58-1.17,13.72,13.72,0,0,0-1.9-.65,10.23,10.23,0,0,1-1.79-.62,1.06,1.06,0,0,1-.65-1,1,1,0,0,1,.27-.79,1.58,1.58,0,0,1,.71-.38,4.22,4.22,0,0,1,.93-.11,3.18,3.18,0,0,1,1.44.4,5.64,5.64,0,0,1,1.43,1l.15.14,1.62-1.79-.11-.13a5.08,5.08,0,0,0-2.2-1.55A7.22,7.22,0,0,0,84,4.76a5.54,5.54,0,0,0-2.22.45,4.31,4.31,0,0,0-1.7,1.27,3.15,3.15,0,0,0-.66,2,3.28,3.28,0,0,0,.69,2.19,4.32,4.32,0,0,0,1.68,1.22,17.54,17.54,0,0,0,2,.7h0a11.15,11.15,0,0,1,1.22.35,2.42,2.42,0,0,1,.83.48.92.92,0,0,1,.28.73,1.17,1.17,0,0,1-.26.8,1.82,1.82,0,0,1-.68.44,2.73,2.73,0,0,1-.83.14,4.16,4.16,0,0,1-1.89-.39,4.58,4.58,0,0,1-1.37-1.09L81,13.91l-1.92,1.64.12.14a5,5,0,0,0,2.29,1.71,7.65,7.65,0,0,0,2.69.49,5.73,5.73,0,0,0,2.21-.44,4.22,4.22,0,0,0,1.73-1.31,3.26,3.26,0,0,0,.69-2.08A3.44,3.44,0,0,0,88.14,11.87Z" style="fill:#fff"/></svg>