<svg id="Layer_1" data-name="Layer 1" xmlns="http://www.w3.org/2000/svg" viewBox="0 0 121.25 28.36"><title>logos</title><rect x="2.76" y="13.56" width="22.46" height="1.03" transform="translate(-5.86 14.01) rotate(-45)" style="fill:#f33d52"/><path d="M15.46,26.31a2.59,2.59,0,0,1-4-3.28l6.38-6.38-.72-.72-6.38,6.38a3.56,3.56,0,0,0,.75,5.13,3.72,3.72,0,0,0,4.67-.39l1.12-1.13h0l-.72-.72Z" style="fill:#f33d52"/><path d="M5.05,16.58a2.58,2.58,0,0,1-3.79-1,2.55,2.55,0,0,1,.51-3L2.9,11.48h0l-.73-.72L1,11.88a3.73,3.73,0,0,0-.4,4.67,3.55,3.55,0,0,0,5.13.75l6.38-6.38-.72-.72Z" style="fill:#f33d52"/><rect x="17.19" y="15.68" width="0.79" height="1.03" transform="translate(-6.3 17.18) rotate(-45)" style="fill:#b12838"/><rect x="14.29" y="12.84" width="0.83" height="1.03" transform="translate(-5.14 14.31) rotate(-45)" style="fill:#b12838"/><rect x="11.71" y="9.87" width="0.52" height="1.03" transform="translate(-3.84 11.51) rotate(-45)" style="fill:#b12838"/><rect x="11.68" y="9.57" width="0.01" height="0.31" transform="translate(-3.46 11.11) rotate(-45)" style="fill:#f33d52"/><path d="M18.24,16.28l.21.21L19,17l-3.25,3.25a2.6,2.6,0,0,0-.33,3.33,2.57,2.57,0,0,0,3.91.35L27,16.19a3.48,3.48,0,0,0,.24-4.69c-1.51-1.77-4-1.74-5.73,0l-3.31,3.31L13.37,10l-.12-.11,3.32-3.32a3.76,3.76,0,0,0,0-5.72A3.47,3.47,0,0,0,11.89,1L4.19,8.72a2.62,2.62,0,0,0-.33,3.34,2.57,2.57,0,0,0,3.91.35l3.29-3.29.51.5.21.22h0l.73.72h0l4.86,4.87.12.12h0l.75.73Zm4-4a2.76,2.76,0,0,1,4.27,0,2.53,2.53,0,0,1-.24,3.24l-7.7,7.7A1.54,1.54,0,1,1,16.39,21l4-4L19,15.55ZM12.52,9.12,11.07,7.66l-4,4a1.56,1.56,0,0,1-1.93.24A1.54,1.54,0,0,1,4.87,9.5l7.74-7.74a2.53,2.53,0,0,1,3.23-.24,2.76,2.76,0,0,1,0,4.27Z" style="fill:#f33d52"/><path d="M38.11,9.7A5.15,5.15,0,0,1,40.67,9a4.33,4.33,0,0,1,2.19.56A8.06,8.06,0,0,1,44.74,11l.13.14,1.93-2L46.71,9A5.88,5.88,0,0,0,45.3,7.62a8.18,8.18,0,0,0-2.08-1.08,7.62,7.62,0,0,0-2.55-.42,7.89,7.89,0,0,0-3.13.64,8.27,8.27,0,0,0-2.63,1.78,8.35,8.35,0,0,0-1.8,2.7,8.94,8.94,0,0,0-.64,3.39,9.32,9.32,0,0,0,1.06,4.52,7.78,7.78,0,0,0,2.87,3,8,8,0,0,0,4.06,1.06,9,9,0,0,0,2.47-.33A8.72,8.72,0,0,0,45,22a5.82,5.82,0,0,0,1.41-1.11l.1-.11L45,18.43l-.17.17a6.34,6.34,0,0,1-1.63,1.17,5,5,0,0,1-2.34.53,6,6,0,0,1-2.71-.63,4.77,4.77,0,0,1-2-1.87,6.05,6.05,0,0,1-.76-3.17,5.83,5.83,0,0,1,.74-3A5.3,5.3,0,0,1,38.11,9.7Z" style="fill:#f33d52"/><path d="M57.84,10.93a6.48,6.48,0,0,0-3.26-.84,6.6,6.6,0,0,0-3.27.84A6.32,6.32,0,0,0,49,13.26a6.65,6.65,0,0,0-.85,3.4,6.71,6.71,0,0,0,.85,3.4,6.3,6.3,0,0,0,2.32,2.32,6.5,6.5,0,0,0,3.27.84,6.38,6.38,0,0,0,3.26-.84,6.2,6.2,0,0,0,2.31-2.32,6.71,6.71,0,0,0,.86-3.4,6.66,6.66,0,0,0-.86-3.4A6.22,6.22,0,0,0,57.84,10.93Zm.34,5.73a4.24,4.24,0,0,1-.46,2.07,3.68,3.68,0,0,1-1.3,1.41,3.48,3.48,0,0,1-1.84.51,3.57,3.57,0,0,1-1.85-.51,3.61,3.61,0,0,1-1.3-1.41A4.13,4.13,0,0,1,51,16.66h0a4.16,4.16,0,0,1,.46-2.09,3.49,3.49,0,0,1,1.3-1.39,3.56,3.56,0,0,1,1.85-.5,3.48,3.48,0,0,1,1.84.5,3.56,3.56,0,0,1,1.3,1.39,4.29,4.29,0,0,1,.46,2.09Z" style="fill:#f33d52"/><rect x="63.24" y="5.33" width="2.79" height="17.66" style="fill:#f33d52"/><path d="M77.45,10.85a5.58,5.58,0,0,0-2.9-.78,6.61,6.61,0,0,0-3.2.8A6.18,6.18,0,0,0,69,13.19a7,7,0,0,0-.89,3.61,6.48,6.48,0,0,0,.84,3.3,6,6,0,0,0,2.35,2.29,7.44,7.44,0,0,0,6.27.26,7.27,7.27,0,0,0,2.06-1.27h.31l-1.52-2.23-.16.14a8.74,8.74,0,0,1-1.28.9,3.82,3.82,0,0,1-2,.46,4.27,4.27,0,0,1-2.81-.93,3.68,3.68,0,0,1-1.26-2.29h9.35l0-1.22a6.4,6.4,0,0,0-.77-3.2A5.88,5.88,0,0,0,77.45,10.85Zm-5.21,2.43a4.26,4.26,0,0,1,2.31-.61,3,3,0,0,1,1.36.32,2.94,2.94,0,0,1,1.06.89,2.41,2.41,0,0,1,.49,1.26H71A3,3,0,0,1,72.24,13.28Z" style="fill:#f33d52"/><path d="M91.8,11.74a6.85,6.85,0,0,0-1.36-1,5.12,5.12,0,0,0-2.58-.65,6.06,6.06,0,0,0-5.38,3.17,7,7,0,0,0-.82,3.4A6.88,6.88,0,0,0,82.49,20a6.2,6.2,0,0,0,2.26,2.34,6.12,6.12,0,0,0,3.18.84,4.87,4.87,0,0,0,1.77-.33,5.33,5.33,0,0,0,1.48-.84,5.18,5.18,0,0,0,.62-.62v.9A3.44,3.44,0,0,1,90.86,25a4,4,0,0,1-2.77.87,6.78,6.78,0,0,1-2-.32,5.55,5.55,0,0,1-1.69-.83l-.19-.15-1,2.22.11.09a6.43,6.43,0,0,0,2.16,1.1,8.74,8.74,0,0,0,2.66.42,7.87,7.87,0,0,0,3.19-.64,5.32,5.32,0,0,0,2.4-2,6.61,6.61,0,0,0,.9-3.64V10.35H91.8Zm-.38,2.86a4.38,4.38,0,0,1,.47,2.06,4.42,4.42,0,0,1-.47,2.05,3.49,3.49,0,0,1-1.29,1.4,3.66,3.66,0,0,1-1.95.51,3.46,3.46,0,0,1-1.89-.52A3.63,3.63,0,0,1,85,18.69a4.2,4.2,0,0,1-.48-2A4.31,4.31,0,0,1,85,14.61a3.59,3.59,0,0,1,1.31-1.42,3.46,3.46,0,0,1,1.89-.52,3.53,3.53,0,0,1,3.24,1.93Z" style="fill:#f33d52"/><path d="M106.55,11.64a6,6,0,0,0-1.26-1,4.66,4.66,0,0,0-2.35-.59,6.16,6.16,0,0,0-3.18.83,6,6,0,0,0-2.2,2.32,7.16,7.16,0,0,0-.79,3.39A7.38,7.38,0,0,0,97.54,20a6,6,0,0,0,2.08,2.33,5.27,5.27,0,0,0,2.92.85,5,5,0,0,0,2.65-.7,6.49,6.49,0,0,0,1.36-1.09V23h2.81V10.35h-2.81Zm-.35,3a4.4,4.4,0,0,1,.45,2,4.62,4.62,0,0,1-.45,2.06A3.54,3.54,0,0,1,105,20.1a3.29,3.29,0,0,1-1.86.52,3.22,3.22,0,0,1-1.81-.52,3.54,3.54,0,0,1-1.24-1.41,4.59,4.59,0,0,1-.45-2.06,4.5,4.5,0,0,1,.45-2,3.48,3.48,0,0,1,1.24-1.39,3.29,3.29,0,0,1,1.81-.51,3.37,3.37,0,0,1,1.86.52A3.54,3.54,0,0,1,106.2,14.62Z" style="fill:#f33d52"/><path d="M120.61,17.2A4,4,0,0,0,119,16a15.22,15.22,0,0,0-1.9-.66,10.29,10.29,0,0,1-1.79-.61,1.06,1.06,0,0,1-.65-1A1,1,0,0,1,115,13a1.58,1.58,0,0,1,.71-.38,4.22,4.22,0,0,1,.93-.11,3.18,3.18,0,0,1,1.44.4,5.64,5.64,0,0,1,1.43,1l.15.14,1.62-1.79-.11-.13a5.08,5.08,0,0,0-2.2-1.55,7.22,7.22,0,0,0-2.45-.48,5.54,5.54,0,0,0-2.22.45,4.31,4.31,0,0,0-1.7,1.27,3.13,3.13,0,0,0-.66,2,3.28,3.28,0,0,0,.69,2.19,4.32,4.32,0,0,0,1.68,1.22,15.75,15.75,0,0,0,2,.69h0a11.15,11.15,0,0,1,1.22.35,2.42,2.42,0,0,1,.83.48.92.92,0,0,1,.28.73,1.14,1.14,0,0,1-.26.79,1.6,1.6,0,0,1-.68.44,2.47,2.47,0,0,1-.83.15,4.16,4.16,0,0,1-1.89-.39,4.58,4.58,0,0,1-1.37-1.09l-.13-.14-1.92,1.64.12.14a5,5,0,0,0,2.29,1.71,7.65,7.65,0,0,0,2.69.49,5.56,5.56,0,0,0,2.21-.45,4.11,4.11,0,0,0,1.73-1.3,3.26,3.26,0,0,0,.69-2.08A3.44,3.44,0,0,0,120.61,17.2Z" style="fill:#f33d52"/></svg>