  <svg version="1.1" id="Layer_1" xmlns="http://www.w3.org/2000/svg"
                xmlnsXlink="http://www.w3.org/1999/xlink" x="0px" y="0px"
                viewBox="0 0 277 79" xmlSpace="preserve">


                <g>
                    <path className="st0" d="M30.3,22.8c1-4.7,2.3-10,3.2-13.2h-0.1c-2.4,5.5-6.2,12.9-11.2,23.3h-6.9C15,24,14.7,15.3,14.5,9.6h-0.1
		c-0.5,3.3-1.4,8.8-2.4,13.7L10,32.9H2.8l6-28.5h11.6c0.4,7,0.9,15.5,0.8,18.7h0c1.6-3.7,5.5-11.5,9.1-18.7H42l-6,28.5h-7.8
		L30.3,22.8z"/>
                    <path className="st0" d="M51.2,27.2l-3.4,5.7h-8.4L55.9,4.4h10.4l5.1,28.5h-8.1l-0.9-5.7H51.2z M61.5,21.1c-0.8-5.1-1.3-8.9-1.5-11.2
		H60c-1.1,2.4-3,6.2-5.7,11.2H61.5z"/>
                    <path className="st0" d="M84.5,22.3l-2.2,10.6h-7.8l6-28.5H95c5.7,0,9.7,2.9,9.7,7.7c0,4.2-2.7,6.4-5.9,7.6c0.9,0.5,3.3,2,2.3,6.9
		c-0.7,2.9-0.9,5-0.7,6.4h-7.8c-0.2-1.2-0.2-2.9,0.6-6.4c0.6-2.9,0.2-4.2-2.6-4.2H84.5z M85.7,16.6h6c2.5,0,4.7-0.9,4.7-3.5
		c0-1.8-1.2-2.8-3.6-2.8H87L85.7,16.6z"/>
                    <path className="st0" d="M111.8,4.4h7.9l-2.5,11.8c4.4-3.7,8.3-7,14-11.8h9.7l-15,12.3l9.6,16.2h-9L119.9,21l-4.4,3.1l-1.8,8.8h-7.9
		L111.8,4.4z"/>
                    <path className="st0" d="M162.5,21.3h-14.7l-1.1,5.5h16.9l-2.2,6.1h-23.7l6-28.5h23.2l-1.3,6.1h-15.5l-0.9,4.6h14.7L162.5,21.3z" />
                    <path className="st0" d="M177.8,10.5h-9.2l1.3-6.1h26.4l-1.3,6.1h-9.2l-4.7,22.4h-8L177.8,10.5z" />
                    <path className="st0" d="M208.2,4.4l-6,28.5h-8l6-28.5H208.2z" />
                    <path className="st0" d="M208.8,32.9l6-28.5h9.5c4.6,11.6,5.8,15.3,6.8,18.9h0.1c0.3-2.7,1.5-8.4,2.5-13.1l1.2-5.7h7.3l-6,28.5h-8.9
		c-1.3-4-6-17.2-6.9-20.7h-0.1c-0.4,3.5-1.5,8-2.5,13.1l-1.6,7.7H208.8z"/>
                    <path className="st0" d="M270.5,32.9H265c-0.1-0.6-0.1-1.4,0-2.5c-1.8,1.8-4,3.2-8.9,3.2c-8.4,0-12-5.9-12-12.5
		c0-8.9,6.4-17.2,17.5-17.2c8.6,0,12.7,4.4,13.1,9.2h-8.2c-0.2-1.4-1.3-3.4-5.4-3.4c-5.2,0-8.5,5.2-8.5,11c0,4.6,1.9,7,5.8,7
		c5.1,0,6.2-3.5,6.6-5.1l0-0.1h-6.2l1.5-5.9H274L270.5,32.9z"/>
                </g>

                <g>

                    <path className="st0" d="M17.3,66.9H12l1.7-8l-8,0l-3,14h13.9c10.5,0,16.8-5.5,17.6-14l-8.5,0C25.2,63.1,22.7,66.9,17.3,66.9z" />
                    <polygon className="st0" points="36.4,72.9 44.4,72.9 47.4,58.9 39.4,58.9 	" />
                    <path className="st0" d="M67.1,62.4l6.2,0l0,0.1c-0.4,1.7-1.5,5.1-6.6,5.1c-4,0-5.8-2.4-5.8-7c0-0.6,0-1.1,0.1-1.6l-8.5,0
		c-0.1,0.7-0.1,1.4-0.1,2.1c0,6.6,3.5,12.5,12,12.5c4.9,0,7.2-1.4,9-3.2c-0.1,1.2-0.1,1.9,0,2.5l5.5,0L81.7,59l-13.7,0L67.1,62.4z"
                    />
                    <polygon className="st0" points="84.4,72.9 92.4,72.9 95.4,59 87.4,59 	" />
                    <polygon className="st0" points="105.4,72.9 113.4,73 116.3,59 108.3,59 	" />
                    <path className="st0" d="M142.2,61.2l-7.2,0c0.4-0.7,0.7-1.4,1.1-2.1l-7.9,0L120.1,73l8.4,0l3.4-5.7l11.2,0L144,73l8.1,0l-2.5-13.9
		l-7.7,0C142,59.7,142.1,60.4,142.2,61.2z"/>
                    <polygon className="st0" points="164.4,66.8 166,59.1 158.1,59.1 155.1,72.9 177.1,72.9 179.4,66.8 	" />
                </g>
                <g className="arriba" id="arriba">
                    <path className="st0" d="M21.2,44.4H8.8L5.8,58.9l8,0l1.8-8.4h3.9c4.4,0,6.5,2.4,6.5,6.7c0,0.6,0,1.2-0.1,1.7l8.5,0
		c0.1-0.6,0.1-1.3,0.1-2C34.4,50.3,30,44.4,21.2,44.4z"/>
                    <polygon className="st0" points="42.5,44.4 39.4,58.9 47.4,58.9 50.5,44.4 	" />
                    <path className="st0" d="M69.3,49.6c4.1,0,5.2,2.1,5.4,3.4l8.2,0c-0.5-4.9-4.5-9.2-13.1-9.2c-10.3,0-16.5,7.1-17.4,15.2l8.5,0
		C61.5,53.8,64.6,49.6,69.3,49.6z"/>
                    <polygon className="st0" points="68.6,56.4 67.9,59 81.7,59 82.2,56.4 	" />
                    <polygon className="st0" points="90.5,44.4 87.4,59 95.4,59 98.5,44.5 	" />
                    <polygon className="st0" points="127.3,50.6 128.6,44.5 102.3,44.5 100.9,50.6 110.1,50.6 108.3,59 116.3,59 118.1,50.6 	" />
                    <path className="st0" d="M140.8,50c0,0-2.6,5.2-4.7,9.1l-7.9,0l8.5-14.5l10.4,0l2.6,14.6l-7.7,0L140.8,50z" />
                    <polygon className="st0" points="169.2,44.4 161.2,44.4 158.1,59.1 166,59.1 	" />
                </g>
            </svg>